Coordinates
version=1
nRows=6
nColumns=34
inDegrees=yes

Units are S.I. units (second, meters, Newtons, ...)
If the header above contains a line with 'inDegrees', this indicates whether rotational values are in degrees (yes) or radians (no).

endheader
time	pelvis_tilt	pelvis_list	pelvis_rotation	pelvis_tx	pelvis_ty	pelvis_tz	hip_flexion_r	hip_adduction_r	hip_rotation_r	knee_angle_r	ankle_angle_r	subtalar_angle_r	mtp_angle_r	hip_flexion_l	hip_adduction_l	hip_rotation_l	knee_angle_l	ankle_angle_l	subtalar_angle_l	mtp_angle_l	lumbar_extension	lumbar_bending	lumbar_rotation	arm_flex_r	arm_add_r	arm_rot_r	elbow_flex_r	pro_sup_r	arm_flex_l	arm_add_l	arm_rot_l	elbow_flex_l	pro_sup_l
     10.86666670	      0.96823412	     -2.68770502	     27.86732475	      0.17450717	      0.88361590	     -0.19109710	     25.93815994	     -2.02203818	     -2.07578891	     23.49003580	      5.37526375	    -15.61898473	      0.00000000	      1.00002740	      4.17844432	     -8.24325459	      6.40099254	    -13.51808426	    -28.34942935	      0.00000000	     -3.23980426	     -0.35999347	     -7.44649348	     -3.44072714	     -2.94912620	     -5.16387230	     22.93722635	     83.17137039	      1.03094132	    -14.85818958	      8.67985243	     32.84973398	     77.31603310
     10.88333330	      0.84664066	     -2.91410964	     28.16699032	      0.17191447	      0.88316162	     -0.18984145	     26.30561462	     -1.85430456	     -2.20144207	     22.14350030	      4.80321549	    -15.33324663	      0.00000000	      1.27004864	      4.00215968	     -9.54403670	      6.14982214	    -15.59153039	    -28.23679662	      0.00000000	     -3.59999165	     -0.10609841	     -7.69932381	     -3.22086572	     -2.99185135	     -5.17607109	     23.01906066	     83.23415075	      1.30648791	    -14.66840915	      8.88767247	     32.92588338	     77.62186258
     10.90000000	      0.76914984	     -3.02598920	     28.61468761	      0.17087426	      0.88264255	     -0.18925707	     26.48414279	     -1.77924907	     -2.23833796	     21.13607452	      4.53250688	    -15.17018981	      0.00000000	      1.71483118	      3.85947889	    -10.37846676	      6.42148582	    -16.93345933	    -28.12847525	      0.00000000	     -4.11828786	     -0.04993481	     -8.00105037	     -3.06936054	     -2.93123044	     -5.17992861	     23.06711880	     83.25571158	      1.63726079	    -14.53431178	      9.03668427	     32.99851131	     77.77300345
     10.91666670	      1.09427803	     -3.16811515	     29.04268042	      0.16982780	      0.88296118	     -0.18940971	     26.04463164	     -1.46930993	     -2.35128593	     20.11189807	      4.32149395	    -15.11762524	      0.00000000	      1.51608515	      3.59419282	    -10.20966016	      6.23026792	    -18.82134199	    -29.87744203	      0.00000000	     -4.87135336	      0.45808107	     -8.43131635	     -2.77409973	     -2.96052368	     -5.29904724	     23.14006680	     83.38347973	      1.89465108	    -14.43332073	     10.11940980	     32.85616906	     78.94122073
     10.93333330	      0.98852681	     -3.19348330	     29.21722987	      0.16953012	      0.88201917	     -0.18901731	     26.19262410	     -1.40600963	     -2.30328646	     19.85055155	      4.36122088	    -15.10676938	      0.00000000	      1.61021379	      3.59652149	    -10.26873482	      6.14416335	    -18.78295311	    -29.90332779	      0.00000000	     -5.10824546	      0.41458131	     -8.49231465	     -2.77158530	     -2.99569024	     -5.30837392	     23.12825774	     83.38405013	      1.86046525	    -14.18887181	     10.18754513	     32.86680119	     78.96496000
     10.95000000	      0.83181034	     -3.20098909	     29.25020251	      0.16965862	      0.88042291	     -0.18816356	     26.23578211	     -1.34835983	     -2.30145669	     19.51910678	      4.41570596	    -15.13437395	      0.00000000	      1.70154759	      3.63815749	    -10.18708217	      6.06060832	    -18.55127261	    -29.99054018	      0.00000000	     -5.31463913	      0.46145018	     -8.57749287	     -2.71198579	     -3.01997507	     -5.31979701	     23.13352537	     83.38402371	      1.78757503	    -13.78282220	     10.30863455	     32.88826089	     79.00397379
